<svg width="17" height="23" viewBox="0 0 17 23" fill="none" xmlns="http://www.w3.org/2000/svg">
<path d="M10.5 6L10.5 16C10.5 17.1046 11.3954 18 12.5 18L14.5 18C15.6046 18 16.5 17.1046 16.5 16L16.5 6C16.5 4.89543 15.6046 4 14.5 4L12.5 4C11.3954 4 10.5 4.89543 10.5 6Z" stroke="#56A6F1" stroke-linecap="round" stroke-linejoin="round"/>
<path d="M0.5 8L0.5 14C0.5 15.1046 1.39543 16 2.5 16L4.5 16C5.60457 16 6.5 15.1046 6.5 14L6.5 8C6.5 6.89543 5.60457 6 4.5 6L2.5 6C1.39543 6 0.5 6.89543 0.5 8Z" stroke="#56A6F1" stroke-linecap="round" stroke-linejoin="round"/>
<path d="M3.5 1L3.5 6" stroke="#56A6F1" stroke-linecap="round" stroke-linejoin="round"/>
<path d="M3.5 16L3.5 22" stroke="#56A6F1" stroke-linecap="round" stroke-linejoin="round"/>
<path d="M13.5 1L13.5 4" stroke="#56A6F1" stroke-linecap="round" stroke-linejoin="round"/>
<path d="M13.5 18L13.5 21" stroke="#56A6F1" stroke-linecap="round" stroke-linejoin="round"/>
</svg>
