<svg width="194" height="65" viewBox="0 0 194 65" fill="none" xmlns="http://www.w3.org/2000/svg">
<g filter="url(#filter0_d_51_1141)">
<path d="M57.9927 40V26.5017H53.0976V23.6867H66.302V26.5017H61.4069V40H57.9927ZM67.8549 40V27.553H71.156V29.4862H71.3595C71.7552 28.1409 72.8857 27.3495 74.5023 27.3495C74.9432 27.3495 75.4067 27.4174 75.7346 27.5078V30.3906C75.2371 30.2776 74.7284 30.1984 74.2197 30.1984C72.343 30.1984 71.156 31.2724 71.156 33.036V40H67.8549ZM81.2782 40.1922C78.9041 40.1922 77.2196 38.7225 77.2196 36.4615V36.4389C77.2196 34.2005 78.9493 32.8891 82.0469 32.7082L85.0541 32.5273V31.4985C85.0541 30.4245 84.3192 29.8141 82.9626 29.8141C81.7756 29.8141 81.0181 30.2324 80.7581 30.9672L80.7355 31.0124H77.6831L77.6944 30.9107C77.9544 28.7288 80.012 27.2817 83.1435 27.2817C86.4446 27.2817 88.31 28.8418 88.31 31.4985V40H85.0541V38.3494H84.8506C84.2175 39.5026 82.9061 40.1922 81.2782 40.1922ZM80.4416 36.258C80.4416 37.2076 81.2442 37.7842 82.3861 37.7842C83.9123 37.7842 85.0541 36.778 85.0541 35.4666V34.5509L82.5443 34.7092C81.1312 34.7996 80.4416 35.331 80.4416 36.2354V36.258ZM96.1598 40.1922C93.0509 40.1922 91.1064 37.7616 91.1064 33.7822V33.7596C91.1064 29.7575 93.0057 27.3495 96.1598 27.3495C97.8669 27.3495 99.2574 28.1861 99.8792 29.5427H100.083V22.7936H103.384V40H100.083V38.0668H99.8792C99.2348 39.4121 97.9121 40.1922 96.1598 40.1922ZM97.279 37.4563C99.0313 37.4563 100.117 36.0771 100.117 33.7935V33.7709C100.117 31.4872 99.02 30.0854 97.279 30.0854C95.538 30.0854 94.464 31.4872 94.464 33.7596V33.7822C94.464 36.0771 95.538 37.4563 97.279 37.4563ZM112.443 40.26C108.656 40.26 106.361 37.7842 106.361 33.7935V33.7822C106.361 29.8254 108.679 27.2817 112.308 27.2817C115.937 27.2817 118.198 29.7688 118.198 33.5335V34.5622H109.628C109.662 36.6085 110.759 37.7955 112.511 37.7955C113.958 37.7955 114.761 37.0267 114.987 36.5519L115.021 36.4841H118.096L118.073 36.5972C117.689 38.1573 116.084 40.26 112.443 40.26ZM112.364 29.7575C110.928 29.7575 109.866 30.7298 109.662 32.4934H115.032C114.829 30.6846 113.8 29.7575 112.364 29.7575ZM120.749 40L127.653 29.0415V28.9963L120.779 18.2489H126.145L130.758 26.0871H130.939L135.521 18.2489H140.616L133.486 29.0717V29.132L140.51 40H135.325L130.562 32.3728H130.411L125.663 40H120.749Z" fill="url(#paint0_linear_51_1141)"/>
</g>
<defs>
<filter id="filter0_d_51_1141" x="0.0387726" y="-34.8099" width="193.636" height="128.129" filterUnits="userSpaceOnUse" color-interpolation-filters="sRGB">
<feFlood flood-opacity="0" result="BackgroundImageFix"/>
<feColorMatrix in="SourceAlpha" type="matrix" values="0 0 0 0 0 0 0 0 0 0 0 0 0 0 0 0 0 0 127 0" result="hardAlpha"/>
<feOffset/>
<feGaussianBlur stdDeviation="26.5294"/>
<feComposite in2="hardAlpha" operator="out"/>
<feColorMatrix type="matrix" values="0 0 0 0 0.282353 0 0 0 0 0.890196 0 0 0 0 1 0 0 0 0.7 0"/>
<feBlend mode="normal" in2="BackgroundImageFix" result="effect1_dropShadow_51_1141"/>
<feBlend mode="normal" in="SourceGraphic" in2="effect1_dropShadow_51_1141" result="shape"/>
</filter>
<linearGradient id="paint0_linear_51_1141" x1="114.471" y1="40.6974" x2="141.258" y2="53.0213" gradientUnits="userSpaceOnUse">
<stop stop-color="#47E3FF"/>
<stop offset="1" stop-color="#835AC1"/>
</linearGradient>
</defs>
</svg>
